<?xml version="1.0" encoding="UTF-8" standalone="no"?>
<svg
   xmlns:dc="http://purl.org/dc/elements/1.1/"
   xmlns:cc="http://creativecommons.org/ns#"
   xmlns:rdf="http://www.w3.org/1999/02/22-rdf-syntax-ns#"
   xmlns:svg="http://www.w3.org/2000/svg"
   xmlns="http://www.w3.org/2000/svg"
   xmlns:sodipodi="http://sodipodi.sourceforge.net/DTD/sodipodi-0.dtd"
   xmlns:inkscape="http://www.inkscape.org/namespaces/inkscape"
   version="1.0"
   width="206.13112pt"
   height="464.38589pt"
   viewBox="0 0 206.13112 464.38589"
   preserveAspectRatio="xMidYMid meet"
   id="svg16"
   sodipodi:docname="logo.svg"
   inkscape:version="0.92.4 (5da689c313, 2019-01-14)">
  <defs
     id="defs20" />
  <sodipodi:namedview
     pagecolor="#ffffff"
     bordercolor="#666666"
     borderopacity="1"
     objecttolerance="10"
     gridtolerance="10"
     guidetolerance="10"
     inkscape:pageopacity="0"
     inkscape:pageshadow="2"
     inkscape:window-width="1920"
     inkscape:window-height="1017"
     id="namedview18"
     showgrid="false"
     inkscape:zoom="0.28687196"
     inkscape:cx="-1078.8177"
     inkscape:cy="207.88387"
     inkscape:window-x="1912"
     inkscape:window-y="-8"
     inkscape:window-maximized="1"
     inkscape:current-layer="svg16" />
  <metadata
     id="metadata2">
Created by potrace 1.15, written by Peter Selinger 2001-2017
<rdf:RDF>
  <cc:Work
     rdf:about="">
    <dc:format>image/svg+xml</dc:format>
    <dc:type
       rdf:resource="http://purl.org/dc/dcmitype/StillImage" />
    <dc:title></dc:title>
  </cc:Work>
</rdf:RDF>
</metadata>
  <g
     transform="matrix(0.1,0,0,-0.1,-109.18531,616.97299)"
     id="g14"
     style="fill:#e9e9e9;stroke:none">
    <path
       d="m 1875,6052 c -234,-305 -359,-543 -430,-819 -151,-580 -33,-1140 349,-1651 101,-135 343,-378 503,-505 68,-54 140,-121 162,-150 179,-238 160,-529 -49,-739 -117,-117 -261,-178 -420,-178 -362,1 -660,316 -660,698 0,113 21,207 86,383 31,82 54,153 52,158 -4,13 -199,-214 -246,-288 -54,-83 -97,-189 -117,-290 -21,-102 -16,-313 9,-405 65,-235 201,-428 399,-564 233,-161 539,-215 830,-148 247,58 486,225 632,445 74,112 117,207 153,340 22,85 25,116 25,266 1,152 -2,180 -25,266 -74,273 -212,472 -453,649 -495,364 -774,748 -875,1205 -79,359 -39,736 140,1306 22,70 40,129 40,133 0,19 -24,-7 -105,-112 z m -187,-572 c -25,-138 -36,-489 -18,-627 26,-213 112,-475 213,-648 159,-275 394,-528 704,-756 54,-40 120,-93 147,-118 148,-137 272,-359 300,-536 5,-35 3,-32 -17,20 -42,112 -125,228 -227,321 -25,23 -108,83 -184,133 -190,125 -289,204 -435,346 -269,261 -459,551 -555,847 -58,176 -71,260 -71,463 0,192 11,267 62,430 23,73 93,239 98,233 1,-2 -6,-50 -17,-108 z m 69,-1545 c 198,-295 443,-530 793,-761 94,-61 177,-125 211,-161 249,-261 250,-575 4,-818 -116,-114 -290,-206 -440,-230 -40,-7 -39,-7 25,32 36,21 99,72 141,114 63,62 85,93 122,170 58,120 72,180 71,304 0,121 -14,185 -64,290 -49,102 -116,175 -283,312 -307,250 -517,503 -663,798 -56,114 -124,289 -124,319 0,6 29,-47 63,-119 35,-71 100,-184 144,-250 z M 1245,2523 c 60,-306 317,-561 664,-655 62,-17 105,-21 236,-21 142,0 172,3 260,26 157,42 299,117 424,224 l 44,38 -23,-45 c -86,-168 -229,-310 -386,-381 -117,-53 -222,-73 -379,-73 -163,1 -249,20 -383,84 -103,49 -157,86 -242,166 -198,188 -297,472 -256,739 l 9,60 9,-45 c 5,-25 15,-77 23,-117 z"
       id="path4"
       inkscape:connector-curvature="0" />
  </g>
</svg>
